PathFileType	4	(x/y/z)	S10_P20_T25
DataRate	CameraRate	NumFrames	NumMarkers	Units	OrigDataRate	OrigDataStartFrame	OrigNumFrames
240	240	10	51	mm	240	248	396
Frame#	Time	Sternum			R.Acromium			L.Acromium			Top.Head			R.ASIS			L.ASIS			R.PSIS			L.PSIS			R.Great.Tro			L.Great.Tro			R.Iliac.Crest			L.Iliac.Crest			V.Sacral			R.Thigh.Upper.Post			R.Thigh.Lower.Ant			R.Thigh.Lower.Post			R.Thigh.Upper.Ant			R.Knee.Lat			R.Knee.Med			R.Shank.Upper.Post			R.Shank.Lower.Ant			R.Shank.Lower.Post			R.Shank.Upper.Ant			R.Ankle.Lat			R.Ankle.Med			R.Heel.Upper			R.Heel.Med			R.Heel.Lat			R.Toe.Lat			R.Toe.Med			R.Toe.Tip			L.Thigh.Upper.Post			L.Thigh.Lower.Ant			L.Thigh.Lower.Post			L.Thigh.Upper.Ant			L.Knee.Lat			L.Knee.Med			L.Shank.Upper.Post			L.Shank.Lower.Ant			L.Shank.Lower.Post			L.Shank.Upper.Ant			L.Ankle.Lat			L.Ankle.Med			L.Heel.Upper			L.Heel.Med			L.Heel.Lat			L.Toe.Lat			L.Toe.Med			L.Toe.Tip			Cervical.Spine			Back			
		X1	Y1	Z1	X2	Y2	Z2	X3	Y3	Z3	X4	Y4	Z4	X5	Y5	Z5	X6	Y6	Z6	X7	Y7	Z7	X8	Y8	Z8	X9	Y9	Z9	X10	Y10	Z10	X11	Y11	Z11	X12	Y12	Z12	X13	Y13	Z13	X14	Y14	Z14	X15	Y15	Z15	X16	Y16	Z16	X17	Y17	Z17	X18	Y18	Z18	X19	Y19	Z19	X20	Y20	Z20	X21	Y21	Z21	X22	Y22	Z22	X23	Y23	Z23	X24	Y24	Z24	X25	Y25	Z25	X26	Y26	Z26	X27	Y27	Z27	X28	Y28	Z28	X29	Y29	Z29	X30	Y30	Z30	X31	Y31	Z31	X32	Y32	Z32	X33	Y33	Z33	X34	Y34	Z34	X35	Y35	Z35	X36	Y36	Z36	X37	Y37	Z37	X38	Y38	Z38	X39	Y39	Z39	X40	Y40	Z40	X41	Y41	Z41	X42	Y42	Z42	X43	Y43	Z43	X44	Y44	Z44	X45	Y45	Z45	X46	Y46	Z46	X47	Y47	Z47	X48	Y48	Z48	X49	Y49	Z49	X50	Y50	Z50	X51	Y51	Z51	

248	1.0292	45.755	1268.6	277.19	-53.312	1428.1	443.4	-105.44	1446.6	146.26	-89.164	1744.5	319.33	5.9137	994.52	405.2	-15.435	1018.4	176.94	-202.84	1018.8	335.05	-205.28	1026.2	253.84	-72.579	919.85	485.42	-74.657	956.37	121.33	-82.65	1076.4	457.41	-87.868	1088.4	154.22	-225.05	987.86	299.92	-114.61	712.41	473.44	-79.817	624.2	433.24	-143.57	628.32	460.26	-48.156	709.4	443.08	-189.81	509.02	422.91	-198.49	518.88	294.72	-356.94	342.02	429.72	-330.43	255.2	408.43	-390.9	276.6	423.02	-288.14	319.5	414.66	-428.77	172.26	399.72	-421.51	180.35	321.55	-509.13	155.01	355.36	-516.09	129.41	326.94	-516.8	130.47	389.07	-370.23	41.939	423.79	-346.78	41.043	313.58	-288.89	43.114	349.79	-33.179	674.15	133.32	58.682	617.76	156.25	-5.9931	584.89	157.34	39.671	703.31	131.51	55.441	517	165.84	65.962	520.61	294.97	42.096	295.47	167.4	128.27	226.8	181.35	64.373	221.09	176.92	106.84	300.21	172.21	126.85	108.5	188.68	136.7	122.97	273.84	70.81	69.767	232.74	86.73	40.257	267.46	84.129	40.844	202.56	258.87	62.923	172.74	278.25	82.04	278.36	328.99	105.27	233.19	-154.3	1485	318.66	-237.02	1275.4	326
249	1.0333	51.646	1268.4	276.69	-48.022	1427.8	442.78	-99.467	1446.3	145.51	-83.628	1744.2	318.91	11.707	994.32	404.73	-9.4095	1018.1	176.45	-196.99	1018.4	334.52	-199.31	1025.8	253.28	-66.683	919.33	484.82	-68.468	956.13	120.82	-76.931	1076.1	456.85	-81.846	1088	153.63	-219.12	987.36	299.32	-107.77	711.69	473.03	-72.283	623.58	433.2	-136.15	627.38	460.02	-41.222	709.02	442.82	-181.78	507.77	422.92	-190.11	517.37	294.71	-350.88	342.98	429.62	-325.62	255.74	408.5	-385.83	278.06	423.12	-282.41	319.51	414.76	-425.13	174.35	399.9	-417.64	182.14	321.66	-505.26	158.72	355.24	-512.89	133.39	326.81	-513.62	134.42	388.91	-369.55	42.439	423.77	-346.31	41.118	313.63	-288.72	42.948	349.68	-27.057	673.99	133.08	64.658	617.55	156.48	-0.052987	584.75	157.25	45.8	703.15	131.7	61.205	516.74	166.02	71.336	520.42	295.08	45.998	295.37	167.63	131.48	225.89	181.71	67.582	220.81	177.03	110.77	299.52	172.6	128.47	107.95	188.79	138.53	121.98	274.11	71.821	70.325	232.95	87.107	40.427	267.57	84.515	41.241	202.64	259.69	60.399	172.89	279.44	78.966	278.47	330.63	101.33	233.33	-148.69	1484.7	317.76	-231.33	1275	325.01
250	1.0375	57.543	1268.2	276.2	-42.745	1427.4	442.17	-93.473	1446	144.77	-78.094	1744	318.48	17.47	994.16	404.27	-3.385	1017.9	175.98	-191.16	1017.9	333.99	-193.35	1025.4	252.71	-60.808	918.83	484.2	-62.265	955.96	120.3	-71.248	1075.9	456.29	-75.812	1087.7	153.05	-213.19	986.9	298.7	-100.83	710.96	472.63	-64.592	622.98	433.18	-128.58	626.43	459.81	-34.186	708.67	442.57	-173.55	506.48	422.98	-181.46	515.79	294.75	-344.6	343.96	429.48	-320.6	256.33	408.58	-380.54	279.57	423.18	-276.48	319.54	414.88	-421.26	176.54	400.06	-413.51	184	321.73	-501.08	162.62	355.07	-509.4	137.57	326.64	-510.14	138.58	388.71	-368.8	43.034	423.72	-345.79	41.253	313.67	-288.53	42.755	349.56	-20.951	673.89	132.81	70.614	617.39	156.65	5.8626	584.66	157.11	51.911	703.05	131.85	66.946	516.53	166.17	76.627	520.27	295.18	49.893	295.32	167.8	134.65	225.04	182.04	70.751	220.59	177.1	114.68	298.87	172.95	130	107.44	188.87	140.29	121.06	274.35	72.76	70.87	233.15	87.437	40.62	267.65	84.845	41.642	202.7	260.42	58	172.97	280.54	76.007	278.52	332.15	97.525	233.41	-143.09	1484.4	316.87	-225.63	1274.7	324
251	1.0417	63.441	1268	275.73	-37.483	1427.2	441.57	-87.454	1445.7	144.03	-72.562	1743.7	318.05	23.198	994.03	403.83	2.6352	1017.8	175.53	-185.35	1017.5	333.44	-187.41	1025	252.13	-54.96	918.33	483.56	-56.053	955.85	119.77	-65.61	1075.6	455.72	-69.77	1087.5	152.49	-207.29	986.47	298.06	-93.791	710.23	472.24	-56.749	622.38	433.19	-120.85	625.46	459.62	-27.052	708.34	442.34	-165.11	505.16	423.07	-172.51	514.13	294.82	-338.1	344.97	429.3	-315.36	256.96	408.67	-375.04	281.13	423.21	-270.35	319.6	415.01	-417.15	178.8	400.19	-409.11	185.91	321.77	-496.59	166.71	354.87	-505.6	141.94	326.42	-506.35	142.97	388.47	-367.99	43.735	423.66	-345.22	41.46	313.68	-288.3	42.533	349.43	-14.861	673.85	132.49	76.553	617.28	156.77	11.758	584.63	156.93	58.007	703	131.95	72.669	516.37	166.27	81.844	520.14	295.28	53.776	295.34	167.91	137.78	224.23	182.34	73.872	220.43	177.14	118.58	298.27	173.25	131.45	106.98	188.93	141.98	120.22	274.56	73.629	71.395	233.32	87.73	40.828	267.72	85.131	42.04	202.74	261.08	55.748	173.01	281.57	73.185	278.55	333.57	93.882	233.45	-137.48	1484.1	315.97	-219.95	1274.4	322.97
252	1.0458	69.338	1267.9	275.27	-32.238	1426.9	440.98	-81.412	1445.5	143.31	-67.031	1743.6	317.63	28.887	993.93	403.4	8.6482	1017.7	175.1	-179.58	1017.1	332.88	-181.49	1024.7	251.54	-49.143	917.85	482.9	-49.839	955.81	119.24	-60.022	1075.4	455.16	-63.724	1087.3	151.94	-201.41	986.07	297.39	-86.648	709.48	471.87	-48.76	621.81	433.23	-112.98	624.47	459.47	-19.825	708.04	442.12	-156.47	503.82	423.21	-163.29	512.38	294.94	-331.39	346.01	429.09	-309.91	257.63	408.78	-369.32	282.73	423.21	-264.02	319.71	415.17	-412.78	181.16	400.3	-404.44	187.89	321.77	-491.75	170.98	354.63	-501.48	146.51	326.17	-502.24	147.58	388.19	-367.1	44.555	423.57	-344.58	41.751	313.67	-288.03	42.277	349.3	-8.7819	673.86	132.13	82.479	617.22	156.84	17.638	584.66	156.7	64.092	703.01	132.01	78.376	516.25	166.34	86.996	520.06	295.36	57.639	295.42	167.96	140.85	223.47	182.62	76.939	220.34	177.16	122.44	297.71	173.51	132.81	106.58	188.97	143.59	119.47	274.73	74.43	71.893	233.48	87.993	41.046	267.78	85.382	42.43	202.77	261.66	53.662	173.01	282.52	70.519	278.55	334.88	90.431	233.46	-131.88	1483.9	315.08	-214.28	1274.2	321.93
253	1.05	75.231	1267.8	274.84	-27.011	1426.7	440.4	-75.347	1445.3	142.6	-61.504	1743.4	317.2	34.531	993.85	403	14.652	1017.6	174.68	-173.83	1016.8	332.29	-175.59	1024.4	250.93	-43.364	917.37	482.24	-43.627	955.83	118.69	-54.489	1075.3	454.61	-57.677	1087.1	151.4	-195.55	985.71	296.7	-79.41	708.73	471.52	-40.633	621.25	433.31	-104.96	623.47	459.37	-12.51	707.78	441.92	-147.65	502.46	423.38	-153.77	510.57	295.1	-324.46	347.08	428.85	-304.24	258.36	408.91	-363.38	284.39	423.16	-257.5	319.85	415.35	-408.16	183.59	400.39	-399.51	189.94	321.73	-486.58	175.44	354.35	-497.03	151.28	325.87	-497.8	152.4	387.89	-366.12	45.504	423.46	-343.85	42.14	313.65	-287.71	41.986	349.16	-2.7131	673.92	131.73	88.394	617.21	156.85	23.505	584.74	156.43	70.167	703.07	132.03	84.071	516.16	166.39	92.097	520.01	295.43	61.473	295.55	167.94	143.87	222.76	182.89	79.944	220.3	177.14	126.26	297.19	173.72	134.09	106.23	189	145.12	118.8	274.88	75.162	72.36	233.61	88.229	41.266	267.83	85.604	42.804	202.79	262.19	51.757	172.98	283.38	68.023	278.56	336.09	87.195	233.46	-126.29	1483.7	314.18	-208.62	1274	320.87
254	1.0542	81.116	1267.8	274.43	-21.804	1426.6	439.84	-69.26	1445.1	141.91	-55.98	1743.3	316.77	40.127	993.8	402.62	20.643	1017.6	174.29	-168.12	1016.4	331.69	-169.71	1024.2	250.31	-37.625	916.91	481.56	-37.425	955.93	118.15	-49.017	1075.1	454.06	-51.634	1087	150.88	-189.72	985.38	295.98	-72.083	707.97	471.2	-32.376	620.72	433.42	-96.813	622.47	459.31	-5.1146	707.55	441.74	-138.66	501.1	423.6	-143.97	508.68	295.31	-317.32	348.19	428.58	-298.35	259.15	409.05	-357.22	286.1	423.08	-250.77	320.04	415.55	-403.27	186.1	400.46	-394.31	192.05	321.66	-481.05	180.06	354.05	-492.23	156.23	325.54	-493	157.43	387.56	-365.05	46.595	423.33	-343.04	42.641	313.6	-287.33	41.657	349.03	3.3459	674.02	131.3	94.299	617.25	156.82	29.363	584.86	156.11	76.233	703.18	132.01	89.752	516.12	166.4	97.159	520.01	295.48	65.266	295.73	167.87	146.81	222.09	183.14	82.879	220.31	177.09	130.04	296.7	173.9	135.28	105.94	189.02	146.55	118.22	275.02	75.825	72.79	233.73	88.442	41.484	267.87	85.801	43.158	202.8	262.66	50.041	172.93	284.17	65.71	278.57	337.19	84.191	233.46	-120.7	1483.5	313.3	-202.97	1273.8	319.79
255	1.0583	86.988	1267.7	274.05	-16.62	1426.5	439.29	-63.152	1445	141.24	-50.461	1743.2	316.35	45.673	993.78	402.26	26.62	1017.7	173.92	-162.45	1016.1	331.07	-163.87	1024	249.68	-31.931	916.45	480.87	-31.239	956.09	117.6	-43.609	1075	453.52	-45.601	1087	150.38	-183.92	985.1	295.24	-64.672	707.22	470.91	-24.001	620.22	433.57	-88.537	621.46	459.3	2.3537	707.36	441.58	-129.5	499.73	423.86	-133.9	506.73	295.55	-309.97	349.35	428.29	-292.25	259.99	409.21	-350.84	287.86	422.95	-243.86	320.27	415.77	-398.11	188.69	400.52	-388.84	194.23	321.56	-475.17	184.85	353.73	-487.08	161.37	325.19	-487.86	162.66	387.21	-363.88	47.836	423.18	-342.11	43.266	313.54	-286.88	41.291	348.9	9.393	674.17	130.83	100.19	617.34	156.76	35.211	585.04	155.76	82.288	703.34	131.95	95.416	516.12	166.4	102.2	520.05	295.53	69.009	295.96	167.74	149.67	221.46	183.38	85.74	220.38	177.02	133.75	296.25	174.04	136.4	105.69	189.04	147.88	117.72	275.14	76.421	73.182	233.83	88.634	41.697	267.9	85.977	43.488	202.8	263.09	48.518	172.87	284.88	63.585	278.58	338.19	81.431	233.46	-115.12	1483.4	312.42	-197.34	1273.7	318.7
256	1.0625	92.845	1267.7	273.71	-11.46	1426.4	438.75	-57.023	1445	140.59	-44.946	1743.1	315.93	51.165	993.77	401.93	32.581	1017.7	173.57	-156.82	1015.9	330.43	-158.06	1023.9	249.03	-26.285	916.01	480.17	-25.074	956.32	117.05	-38.267	1074.8	452.99	-39.582	1087	149.91	-178.16	984.85	294.47	-57.187	706.47	470.65	-15.519	619.75	433.76	-80.146	620.45	459.33	9.8866	707.2	441.46	-120.19	498.37	424.15	-123.56	504.72	295.83	-302.41	350.54	427.97	-285.95	260.89	409.38	-344.24	289.68	422.79	-236.75	320.55	416.01	-392.69	191.35	400.56	-383.11	196.49	321.42	-468.93	189.8	353.4	-481.58	166.69	324.81	-482.35	168.08	386.84	-362.59	49.237	423	-341.05	44.029	313.46	-286.34	40.887	348.77	15.424	674.36	130.32	106.07	617.47	156.66	41.044	585.25	155.38	88.328	703.54	131.86	101.06	516.14	166.39	107.21	520.14	295.55	72.692	296.23	167.57	152.44	220.88	183.6	88.521	220.5	176.92	137.39	295.83	174.15	137.45	105.5	189.06	149.11	117.31	275.24	76.951	73.535	233.92	88.806	41.899	267.93	86.135	43.792	202.81	263.46	47.185	172.79	285.52	61.652	278.61	339.09	78.919	233.47	-109.55	1483.3	311.55	-191.73	1273.7	317.6
257	1.0667	98.682	1267.7	273.41	-6.3266	1426.3	438.24	-50.874	1444.9	139.96	-39.438	1743	315.51	56.602	993.78	401.61	38.526	1017.9	173.23	-151.23	1015.6	329.78	-152.29	1023.8	248.36	-20.688	915.57	479.47	-18.935	956.62	116.51	-32.994	1074.7	452.47	-33.582	1087	149.45	-172.44	984.64	293.67	-49.634	705.72	470.41	-6.9449	619.31	433.98	-71.652	619.46	459.41	17.475	707.09	441.36	-110.75	497.03	424.48	-112.97	502.67	296.15	-294.65	351.78	427.64	-279.43	261.86	409.58	-337.42	291.55	422.59	-229.46	320.87	416.26	-386.99	194.08	400.59	-377.12	198.81	321.26	-462.33	194.87	353.07	-475.72	172.16	324.42	-476.5	173.66	386.47	-361.16	50.805	422.81	-339.84	44.938	313.36	-285.7	40.447	348.67	21.43	674.58	129.79	111.92	617.64	156.53	46.857	585.49	154.97	94.346	703.78	131.73	106.66	516.2	166.36	112.23	520.26	295.56	76.303	296.53	167.34	155.13	220.33	183.81	91.219	220.65	176.8	140.95	295.44	174.24	138.41	105.34	189.08	150.24	116.98	275.34	77.418	73.849	233.99	88.958	42.091	267.95	86.275	44.068	202.8	263.8	46.037	172.7	286.08	59.909	278.65	339.89	76.655	233.49	-103.99	1483.3	310.7	-186.14	1273.6	316.49
